name Run_500 04_newCOP3_v24.mot
datacolumns 19
datarows 85
range 4.115 4.157
DataType=double
version=3
OpenSimVersion=4.3-2021-08-27-4bc7ad9
endheader
time	R_ground_force_vx	R_ground_force_vy	R_ground_force_vz	R_ground_force_px	R_ground_force_py	R_ground_force_pz	L_ground_force_vx	L_ground_force_vy	L_ground_force_vz	L_ground_force_px	L_ground_force_py	L_ground_force_pz	R_ground_torque_x	R_ground_torque_y	R_ground_torque_z	L_ground_torque_x	L_ground_torque_y	L_ground_torque_z
4.115	-131.941452	1995.425415	20.83663	1.127928	0	-0.389953	0	0	0	0	0	0	0	-12.006311	0	0	0	0
4.1155	-128.694839	1996.054199	21.271725	1.126133	0	-0.389994	0	0	0	0	0	0	0	-12.129258	0	0	0	0
4.116	-125.409737	1996.529297	21.705547	1.124333	0	-0.390035	0	0	0	0	0	0	0	-12.250655	0	0	0	0
4.1165	-122.085968	1996.852539	22.138033	1.122531	0	-0.390077	0	0	0	0	0	0	0	-12.370464	0	0	0	0
4.117	-118.723351	1997.025513	22.569132	1.120725	0	-0.39012	0	0	0	0	0	0	0	-12.488647	0	0	0	0
4.1175	-115.321663	1997.049927	22.998816	1.118916	0	-0.390163	0	0	0	0	0	0	0	-12.605167	0	0	0	0
4.118	-111.880676	1996.927246	23.427063	1.117105	0	-0.390207	0	0	0	0	0	0	0	-12.719989	0	0	0	0
4.1185	-108.400185	1996.659302	23.853878	1.115291	0	-0.390251	0	0	0	0	0	0	0	-12.833075	0	0	0	0
4.119	-104.880013	1996.247437	24.279276	1.113476	0	-0.390296	0	0	0	0	0	0	0	-12.944388	0	0	0	0
4.1195	-101.320038	1995.693237	24.703285	1.111659	0	-0.390342	0	0	0	0	0	0	0	-13.053896	0	0	0	0
4.12	-97.720207	1994.998047	25.125954	1.10984	0	-0.390388	0	0	0	0	0	0	0	-13.161561	0	0	0	0
4.1205	-94.080544	1994.163452	25.547344	1.108021	0	-0.390435	0	0	0	0	0	0	0	-13.267349	0	0	0	0
4.121	-90.40117600000001	1993.19043	25.967531	1.1062	0	-0.390483	0	0	0	0	0	0	0	-13.371226	0	0	0	0
4.1215	-86.68235	1992.080444	26.386604	1.104378	0	-0.390531	0	0	0	0	0	0	0	-13.473159	0	0	0	0
4.122	-82.924431	1990.834717	26.804665	1.102555	0	-0.390579	0	0	0	0	0	0	0	-13.573113	0	0	0	0
4.1225	-79.127922	1989.453979	27.221827	1.100732	0	-0.390628	0	0	0	0	0	0	0	-13.671056	0	0	0	0
4.123	-75.293442	1987.939453	27.638212	1.098908	0	-0.390678	0	0	0	0	0	0	0	-13.766954	0	0	0	0
4.1235	-71.42177599999999	1986.291992	28.053953	1.097084	0	-0.390728	0	0	0	0	0	0	0	-13.860777	0	0	0	0
4.124	-67.513817	1984.512329	28.469193	1.095259	0	-0.390779	0	0	0	0	0	0	0	-13.952491	0	0	0	0
4.1245	-63.570606	1982.601196	28.884075	1.093434	0	-0.39083	0	0	0	0	0	0	0	-14.042064	0	0	0	0
4.125	-59.593304	1980.559082	29.29875	1.091608	0	-0.390881	0	0	0	0	0	0	0	-14.129467	0	0	0	0
4.1255	-55.583187	1978.386475	29.713375	1.089783	0	-0.390933	0	0	0	0	0	0	0	-14.214668	0	0	0	0
4.126	-51.541634	1976.083862	30.128103	1.087957	0	-0.390985	0	0	0	0	0	0	0	-14.297637	0	0	0	0
4.1265	-47.470112	1973.651489	30.543089	1.08613	0	-0.391038	0	0	0	0	0	0	0	-14.378344	0	0	0	0
4.127	-43.370171	1971.089478	30.958487	1.084303	0	-0.391091	0	0	0	0	0	0	0	-14.456758	0	0	0	0
4.1275	-39.243408	1968.397827	31.374441	1.082476	0	-0.391144	0	0	0	0	0	0	0	-14.532852	0	0	0	0
4.128	-35.091469	1965.576782	31.791098	1.080648	0	-0.391197	0	0	0	0	0	0	0	-14.606597	0	0	0	0
4.1285	-30.916016	1962.626099	32.208591	1.07882	0	-0.391251	0	0	0	0	0	0	0	-14.677962	0	0	0	0
4.129	-26.718725	1959.545532	32.627048	1.076992	0	-0.391305	0	0	0	0	0	0	0	-14.746922	0	0	0	0
4.1295	-22.501261	1956.334961	33.046577	1.075162	0	-0.39136	0	0	0	0	0	0	0	-14.813446	0	0	0	0
4.13	-18.265257	1952.993896	33.467289	1.073332	0	-0.391414	0	0	0	0	0	0	0	-14.877509	0	0	0	0
4.1305	-14.012312	1949.521973	33.889263	1.071501	0	-0.391469	0	0	0	0	0	0	0	-14.939083	0	0	0	0
4.131	-9.743969999999999	1945.918701	34.312576	1.069669	0	-0.391524	0	0	0	0	0	0	0	-14.998142	0	0	0	0
4.1315	-5.461714	1942.183594	34.737282	1.067835	0	-0.39158	0	0	0	0	0	0	0	-15.054658	0	0	0	0
4.132	-1.166954	1938.315918	35.163422	1.066001	0	-0.391635	0	0	0	0	0	0	0	-15.108607	0	0	0	0
4.1325	3.138978	1934.315063	35.591011	1.064165	0	-0.391691	0	0	0	0	0	0	0	-15.159962	0	0	0	0
4.133	7.454829	1930.18042	36.020046	1.062328	0	-0.391747	0	0	0	0	0	0	0	-15.208698	0	0	0	0
4.1335	11.779428	1925.911133	36.450508	1.060489	0	-0.391803	0	0	0	0	0	0	0	-15.25479	0	0	0	0
4.134	16.111687	1921.50647	36.882351	1.058649	0	-0.391859	0	0	0	0	0	0	0	-15.298215	0	0	0	0
4.1345	20.45059	1916.965698	37.315517	1.056806	0	-0.391915	0	0	0	0	0	0	0	-15.338946	0	0	0	0
4.135	24.795195	1912.287842	37.749916	1.054962	0	-0.391972	0	0	0	0	0	0	0	-15.376962	0	0	0	0
4.1355	29.144619	1907.472046	38.18544	1.053116	0	-0.392029	0	0	0	0	0	0	0	-15.412237	0	0	0	0
4.136	33.498032	1902.517578	38.621964	1.051268	0	-0.392086	0	0	0	0	0	0	0	-15.444751	0	0	0	0
4.1365	37.854645	1897.423584	39.05933	1.049417	0	-0.392143	0	0	0	0	0	0	0	-15.474479	0	0	0	0
4.137	42.213692	1892.188965	39.497375	1.047564	0	-0.3922	0	0	0	0	0	0	0	-15.5014	0	0	0	0
4.1375	46.574425	1886.81311	39.935905	1.045709	0	-0.392257	0	0	0	0	0	0	0	-15.525492	0	0	0	0
4.138	50.936085	1881.295044	40.37471	1.043851	0	-0.392315	0	0	0	0	0	0	0	-15.546734	0	0	0	0
4.1385	55.297909	1875.633789	40.813557	1.041991	0	-0.392373	0	0	0	0	0	0	0	-15.565104	0	0	0	0
4.139	59.659096	1869.828735	41.252205	1.040128	0	-0.392431	0	0	0	0	0	0	0	-15.580583	0	0	0	0
4.1395	64.01879099999999	1863.878906	41.690384	1.038262	0	-0.392489	0	0	0	0	0	0	0	-15.59315	0	0	0	0
4.14	68.376091	1857.783325	42.127819	1.036394	0	-0.392547	0	0	0	0	0	0	0	-15.602787	0	0	0	0
4.1405	72.730019	1851.541504	42.564217	1.034523	0	-0.392606	0	0	0	0	0	0	0	-15.609475	0	0	0	0
4.141	77.079514	1845.152466	42.999271	1.032649	0	-0.392664	0	0	0	0	0	0	0	-15.613194	0	0	0	0
4.1415	81.423416	1838.615479	43.432663	1.030772	0	-0.392723	0	0	0	0	0	0	0	-15.613928	0	0	0	0
4.142	85.760475	1831.92981	43.864059	1.028893	0	-0.392782	0	0	0	0	0	0	0	-15.611659	0	0	0	0
4.1425	90.089325	1825.094849	44.293129	1.027011	0	-0.392842	0	0	0	0	0	0	0	-15.606371	0	0	0	0
4.143	94.40849300000001	1818.109985	44.719521	1.025127	0	-0.392901	0	0	0	0	0	0	0	-15.598047	0	0	0	0
4.1435	98.71639999999999	1810.974487	45.142883	1.023239	0	-0.392961	0	0	0	0	0	0	0	-15.586674	0	0	0	0
4.144	103.01136	1803.687744	45.562859	1.021349	0	-0.393021	0	0	0	0	0	0	0	-15.572234	0	0	0	0
4.1445	107.291565	1796.24939	45.979088	1.019457	0	-0.393081	0	0	0	0	0	0	0	-15.554715	0	0	0	0
4.145	111.555107	1788.658813	46.391197	1.017561	0	-0.393141	0	0	0	0	0	0	0	-15.534104	0	0	0	0
4.1455	115.799988	1780.915771	46.798824	1.015663	0	-0.393202	0	0	0	0	0	0	0	-15.510388	0	0	0	0
4.146	120.024117	1773.019775	47.201595	1.013763	0	-0.393263	0	0	0	0	0	0	0	-15.483556	0	0	0	0
4.1465	124.225327	1764.970581	47.599144	1.01186	0	-0.393323	0	0	0	0	0	0	0	-15.453596	0	0	0	0
4.147	128.401382	1756.767944	47.991096	1.009954	0	-0.393384	0	0	0	0	0	0	0	-15.420499	0	0	0	0
4.1475	132.549973	1748.411743	48.377087	1.008046	0	-0.393445	0	0	0	0	0	0	0	-15.384255	0	0	0	0
4.148	136.668793	1739.901978	48.756744	1.006135	0	-0.393506	0	0	0	0	0	0	0	-15.344856	0	0	0	0
4.1485	140.755463	1731.238525	49.129707	1.004222	0	-0.393567	0	0	0	0	0	0	0	-15.302296	0	0	0	0
4.149	144.807602	1722.421509	49.495602	1.002306	0	-0.393628	0	0	0	0	0	0	0	-15.256566	0	0	0	0
4.1495	148.822815	1713.45105	49.854076	1.000388	0	-0.393688	0	0	0	0	0	0	0	-15.207663	0	0	0	0
4.15	152.798752	1704.327515	50.204765	0.998468	0	-0.393749	0	0	0	0	0	0	0	-15.155581	0	0	0	0
4.1505	156.733047	1695.051147	50.547314	0.996545	0	-0.393809	0	0	0	0	0	0	0	-15.100317	0	0	0	0
4.151	160.623367	1685.622559	50.881367	0.994619	0	-0.393869	0	0	0	0	0	0	0	-15.041869	0	0	0	0
4.1515	164.467484	1676.041992	51.20657	0.992691	0	-0.393928	0	0	0	0	0	0	0	-14.980237	0	0	0	0
4.152	168.263153	1666.310303	51.522579	0.99076	0	-0.393987	0	0	0	0	0	0	0	-14.91542	0	0	0	0
4.1525	172.008224	1656.428101	51.829041	0.988827	0	-0.394046	0	0	0	0	0	0	0	-14.847419	0	0	0	0
4.153	175.700607	1646.396362	52.12561	0.986892	0	-0.394104	0	0	0	0	0	0	0	-14.776236	0	0	0	0
4.1535	179.338303	1636.215698	52.411945	0.984953	0	-0.394161	0	0	0	0	0	0	0	-14.701876	0	0	0	0
4.154	182.919388	1625.887329	52.687702	0.983012	0	-0.394218	0	0	0	0	0	0	0	-14.624343	0	0	0	0
4.1545	186.442001	1615.412231	52.952538	0.981069	0	-0.394273	0	0	0	0	0	0	0	-14.543644	0	0	0	0
4.155	189.904373	1604.791748	53.206108	0.979122	0	-0.394328	0	0	0	0	0	0	0	-14.459785	0	0	0	0
4.1555	193.304825	1594.026978	53.448082	0.977173	0	-0.394382	0	0	0	0	0	0	0	-14.372778	0	0	0	0
4.156	196.641739	1583.119385	53.678112	0.975221	0	-0.394435	0	0	0	0	0	0	0	-14.282631	0	0	0	0
4.1565	199.913605	1572.070313	53.895863	0.973267	0	-0.394487	0	0	0	0	0	0	0	-14.189356	0	0	0	0
4.157	203.118958	1560.881348	54.100994	0.971309	0	-0.394538	0	0	0	0	0	0	0	-14.092967	0	0	0	0
